<svg xmlns="http://www.w3.org/2000/svg" viewBox="0 0 24 24"><path d="M23 4H1a1 1 0 0 0-1 1v14a1 1 0 0 0 1 1h22a1 1 0 0 0 1-1V5a1 1 0 0 0-1-1zm-1 14H2V6h20z"/><path d="M8 16h8a1 1 0 0 0 0-2H8a1 1 0 0 0 0 2zM4 13h1a1 1 0 0 0 0-2H4a1 1 0 0 0 0 2zM9 13h1a1 1 0 0 0 0-2H9a1 1 0 0 0 0 2zM14 13h1a1 1 0 0 0 0-2h-1a1 1 0 0 0 0 2zM19 13h1a1 1 0 0 0 0-2h-1a1 1 0 0 0 0 2zM4 10h1a1 1 0 0 0 0-2H4a1 1 0 0 0 0 2zM9 10h1a1 1 0 0 0 0-2H9a1 1 0 0 0 0 2zM14 10h1a1 1 0 0 0 0-2h-1a1 1 0 0 0 0 2zM19 10h1a1 1 0 0 0 0-2h-1a1 1 0 0 0 0 2z"/></svg>